<svg width="60" height="60" viewBox="0 0 60 60" fill="none" xmlns="http://www.w3.org/2000/svg">
<g clip-path="url(#clip0_205_105)">
<path d="M59.2719 0.348104C58.512 -0.101892 57.5719 -0.116892 56.7945 0.310604L9.99999 27.1478V2.50047C9.99999 1.12048 8.88004 0.000528747 7.50005 0.000528747C6.12007 0.000528747 5 1.12048 5 2.50047V57.4999C5 58.8799 6.11995 59.9998 7.49994 59.9998C8.87992 59.9998 9.99987 58.8799 9.99987 57.4999V32.8527L56.7945 59.69C57.172 59.8975 57.5845 59.9999 57.9995 59.9999C58.4396 59.9999 58.8821 59.8824 59.2721 59.6525C60.0346 59.2025 60.4996 58.3825 60.4996 57.5V2.50047C60.4995 1.61547 60.0345 0.797982 59.2719 0.348104Z" fill="#6F6F6F"/>
</g>
<defs>
<clipPath id="clip0_205_105">
<rect width="60" height="60" fill="white"/>
</clipPath>
</defs>
</svg>
