<svg width="24" height="24" viewBox="0 0 24 24" fill="none" xmlns="http://www.w3.org/2000/svg">
<path d="M19.5341 6.02L22.6936 3.90302C22.7688 3.851 22.8333 3.7841 22.8836 3.70616C22.9338 3.62822 22.9688 3.54075 22.9865 3.44876C23.0042 3.35677 23.0043 3.26205 22.9868 3.17002C22.9693 3.07799 22.9345 2.99045 22.8844 2.91239L22.5033 2.31819C22.4532 2.24012 22.3888 2.17306 22.3138 2.12085C22.2388 2.06864 22.1546 2.03229 22.0661 2.01388C21.9775 1.99548 21.8864 1.99537 21.7978 2.01357C21.7092 2.03178 21.6249 2.06793 21.5498 2.11997L16.8207 5.28963C14.6825 4.89767 12.654 4.85704 12 4.85704C10.4338 4.85704 1 5.06017 1 9.86377V17.0169C1 18.3683 2.18164 19.5919 4.09375 20.4928V15.9437C4.09375 15.6596 4.2024 15.387 4.3958 15.1861C4.58919 14.9852 4.8515 14.8723 5.125 14.8723C5.3985 14.8723 5.66081 14.9852 5.8542 15.1861C6.0476 15.387 6.15625 15.6596 6.15625 15.9437V21.2531C7.57637 21.6598 9.21004 21.9254 10.9688 22V17.3745C10.9688 17.0904 11.0774 16.8178 11.2708 16.6169C11.4642 16.416 11.7265 16.3031 12 16.3031C12.2735 16.3031 12.5358 16.416 12.7292 16.6169C12.9226 16.8178 13.0312 17.0904 13.0312 17.3745V22C14.79 21.9254 16.4236 21.6598 17.8438 21.2531V15.9437C17.8438 15.6596 17.9524 15.387 18.1458 15.1861C18.3392 14.9852 18.6015 14.8723 18.875 14.8723C19.1485 14.8723 19.4108 14.9852 19.6042 15.1861C19.7976 15.387 19.9062 15.6596 19.9062 15.9437V20.4928C21.8184 19.5919 23 18.3683 23 17.0169V9.86377C23 7.92983 21.4634 6.74946 19.5341 6.02ZM12 12.7249C7.06375 12.7249 3.0625 11.4441 3.0625 9.86377C3.0625 8.2834 7.06375 7.00304 12 7.00304C12.7369 7.00304 13.4493 7.03473 14.1347 7.08831L11.0061 9.18653C10.931 9.23859 10.8665 9.30551 10.8163 9.38347C10.7661 9.46143 10.7312 9.5489 10.7135 9.64089C10.6958 9.73288 10.6957 9.82758 10.7133 9.9196C10.7308 10.0116 10.7657 10.0991 10.8158 10.1772L11.1969 10.7714C11.247 10.8494 11.3114 10.9165 11.3864 10.9687C11.4614 11.0209 11.5456 11.0573 11.6341 11.0757C11.7227 11.0941 11.8138 11.0942 11.9024 11.076C11.991 11.0578 12.0753 11.0216 12.1504 10.9696L17.2482 7.55349C19.4804 8.07135 20.9375 8.91242 20.9375 9.86377C20.9375 11.4441 16.9358 12.7249 12 12.7249Z" fill="#6F6F6F"/>
</svg>
