<svg width="24" height="24" viewBox="0 0 24 24" fill="none" xmlns="http://www.w3.org/2000/svg">
<g clip-path="url(#clip0_182_123)">
<path d="M23.1 1.95006L22.05 0.900063C21.825 0.675063 21.375 0.600063 21.075 0.825063L17.85 3.00006C17.7 3.15006 17.55 3.30006 17.55 3.52506C17.55 3.75006 17.625 3.97506 17.775 4.12506L13.8 8.10006L1.35 11.9251C1.05 12.0001 0.824997 12.3001 0.824997 12.6001C0.824997 12.9001 0.974997 13.2001 1.275 13.3501L8.025 15.9751L10.65 22.7251C10.725 23.0251 11.025 23.1751 11.325 23.1751C11.625 23.1751 11.925 22.9501 12 22.6501L16.05 9.75006L14.175 11.6251C13.875 11.9251 13.425 11.9251 13.125 11.6251C12.975 11.4751 12.9 11.2501 12.9 11.1001L18.825 5.17506L19.35 5.70006L19.875 6.22506C20.025 6.37506 20.175 6.45006 20.4 6.45006H20.475C20.7 6.45006 20.925 6.30006 21 6.15006L23.175 2.92506C23.4 2.62506 23.4 2.25006 23.1 1.95006ZM11.85 15.3751C11.7 15.5251 11.475 15.6001 11.325 15.6001C11.175 15.6001 10.95 15.5251 10.8 15.3751L8.625 13.2001C8.325 12.9001 8.325 12.4501 8.625 12.1501C8.925 11.8501 9.375 11.8501 9.675 12.1501L11.85 14.3251C12.15 14.6251 12.15 15.0751 11.85 15.3751Z" fill="#6F6F6F"/>
</g>
<defs>
<clipPath id="clip0_182_123">
<rect width="24" height="24" fill="white"/>
</clipPath>
</defs>
</svg>
