<svg width="24" height="24" viewBox="0 0 24 24" fill="none" xmlns="http://www.w3.org/2000/svg">
<g clip-path="url(#clip0_182_125)">
<path d="M23.6838 2.22162L21.7783 0.316109C21.6029 0.140724 21.3185 0.140724 21.1432 0.316109L19.2377 2.22162C19.0624 2.39691 19.0623 2.68122 19.2375 2.8566L13.9595 8.13457C12.2227 6.91703 10.2918 6.68128 9.28568 7.68743C9.05768 7.91543 8.89347 8.19106 8.7899 8.50112C8.70202 8.75839 8.60131 9.02229 8.47725 9.28546C8.33187 9.59368 8.13987 9.88648 7.88417 10.1422C7.52611 10.5002 7.09337 10.7319 6.64319 10.8766C5.70645 11.1775 4.55445 11.397 3.59002 11.6881C3.23233 11.7773 2.88959 11.9053 2.56743 12.0727C2.4118 12.1491 2.27057 12.231 2.1478 12.3199L2.14817 12.3203C1.9187 12.4741 1.70251 12.6506 1.50248 12.8506C0.613558 13.7396 0.18322 14.9501 0.184604 16.2461C0.18645 18.0108 0.988789 19.9391 2.5246 21.475C4.06568 23.016 5.9843 23.8188 7.75384 23.8153C9.0431 23.8128 10.2641 23.382 11.1489 22.4972C11.35 22.2961 11.5271 22.0788 11.6815 21.848C11.7676 21.7287 11.847 21.5926 11.9213 21.4426C12.0952 21.1101 12.2277 20.756 12.318 20.3856C12.6057 19.426 12.824 18.2853 13.1225 17.3561C13.2672 16.9059 13.4989 16.4732 13.8569 16.1151C14.1126 15.8594 14.4054 15.6674 14.7136 15.522C14.9727 15.3998 15.2324 15.3005 15.4859 15.2136C15.8009 15.1104 16.0811 14.9451 16.3121 14.7141C17.3184 13.7078 17.0825 11.7769 15.865 10.0402L21.143 4.7622L21.1432 4.76239C21.3185 4.93777 21.6029 4.93777 21.7783 4.76239L23.6838 2.85688C23.8592 2.6814 23.8592 2.397 23.6838 2.22162ZM7.80968 19.3759L4.63383 16.2L5.269 15.5649L8.44485 18.7407L7.80968 19.3759ZM12.5186 13.863C11.8609 14.5207 10.7945 14.5207 10.1367 13.863C9.47888 13.2053 9.47897 12.1389 10.1367 11.4811C10.7944 10.8234 11.8608 10.8234 12.5186 11.4811C13.1764 12.1388 13.1763 13.2052 12.5186 13.863Z" fill="#6F6F6F"/>
</g>
<defs>
<clipPath id="clip0_182_125">
<rect width="24" height="24" fill="white"/>
</clipPath>
</defs>
</svg>
