<svg width="24" height="24" viewBox="0 0 24 24" fill="none" xmlns="http://www.w3.org/2000/svg">
<path d="M0.999807 22.2638L1.73602 23L3.7222 21.0138L2.98599 20.2776L0.999807 22.2638Z" fill="#6F6F6F"/>
<path d="M1 22.1904L3.20051 20L4 20.8179L1.80753 23L1 22.1904Z" fill="#6F6F6F"/>
<path d="M12.6061 7L3 18.5544L5.44554 21L17 11.3938L12.6061 7ZM5.44554 21L17 11.3938Z" fill="#6F6F6F"/>
<path d="M3 18.5576L12.6169 7L17 11.401L5.4414 21L3 18.5576Z" fill="#6F6F6F"/>
<path d="M13.0003 6.28081L17.7192 10.9997C18.8971 11.0133 20.0762 10.5839 21 9.7276L14.2723 3C13.416 3.92376 12.9868 5.10288 13.0003 6.28081Z" fill="#6F6F6F"/>
<path d="M17.7204 10.9997L13.0002 6.27404C12.989 5.06511 13.4406 3.90004 14.2746 3L21 9.74126C20.1154 10.5481 18.97 11 17.7748 11L17.7204 10.9997Z" fill="#6F6F6F"/>
<path d="M21.4606 2.53942C19.7076 0.786347 17.0278 0.532745 15 1.76741L22.2326 9C23.4672 6.97216 23.2136 4.2924 21.4606 2.53942Z" fill="#6F6F6F"/>
<path d="M15 1.75202C15.8222 1.2659 16.7703 1 17.7398 1C19.1441 1 20.464 1.5475 21.4564 2.54156C23.1747 4.26308 23.494 6.91695 22.235 9L15 1.75202Z" fill="#6F6F6F"/>
</svg>
