<svg width="24" height="24" viewBox="0 0 24 24" fill="none" xmlns="http://www.w3.org/2000/svg">
<path d="M9.87878 11.9592L20.1818 8.29396V14.3878C19.5696 14.0392 18.8416 13.837 18.0606 13.837C15.8849 13.837 14.1212 15.4056 14.1212 17.3405C14.1212 19.2754 15.8849 20.844 18.0606 20.844C20.2362 20.844 22 19.2754 22 17.3405V7.0416C22 5.80962 22 4.77641 21.9026 3.95319C21.8888 3.83685 21.8724 3.72118 21.8544 3.61326C21.7606 3.05085 21.5947 2.5262 21.2744 2.08809C21.1142 1.86902 20.9156 1.6716 20.668 1.50191C20.6216 1.4701 20.5733 1.43925 20.5234 1.40942L20.5134 1.40347C19.6562 0.896083 18.6926 0.932372 17.6998 1.15735C16.7397 1.37495 15.5493 1.81805 14.0898 2.36139L11.5514 3.30622C10.8673 3.56087 10.2877 3.77661 9.83267 4.00007C9.34862 4.23783 8.93166 4.51824 8.61897 4.93611C8.30627 5.35399 8.1764 5.80432 8.11668 6.29323C8.06056 6.75276 8.06058 7.31158 8.06061 7.97117V16.5438C7.4483 16.1952 6.72039 15.993 5.93939 15.993C3.76372 15.993 2 17.5616 2 19.4965C2 21.4314 3.76372 23 5.93939 23C8.11506 23 9.87878 21.4314 9.87878 19.4965V11.9592Z" fill="black"/>
</svg>
