<svg width="24" height="24" viewBox="0 0 24 24" fill="none" xmlns="http://www.w3.org/2000/svg">
<path d="M1 2V8.34923H22V2H1ZM14.9499 6.36945C14.7296 6.57803 14.4366 6.69286 14.125 6.69286C13.8134 6.69286 13.5204 6.57803 13.3001 6.36945C13.0797 6.16087 12.9584 5.88354 12.9584 5.58855C12.9584 5.29356 13.0798 5.01631 13.3002 4.80769C13.5204 4.5993 13.8134 4.48447 14.125 4.48447C14.4366 4.48447 14.7296 4.5993 14.9499 4.80788C15.1702 5.01615 15.2916 5.29352 15.2916 5.58863C15.2916 5.88362 15.1703 6.16087 14.9499 6.36945ZM19.0333 6.36945C18.8129 6.57803 18.5199 6.69286 18.2084 6.69286C17.8968 6.69286 17.6038 6.57803 17.3834 6.36945C17.163 6.16087 17.0417 5.88354 17.0417 5.58855C17.0417 5.29356 17.1631 5.01631 17.3835 4.80769C17.6038 4.59926 17.8968 4.48443 18.2084 4.48443C18.52 4.48443 18.8129 4.59926 19.0333 4.80784C19.2536 5.01611 19.375 5.29348 19.375 5.58859C19.375 5.88362 19.2536 6.16087 19.0333 6.36945Z" fill="#6F6F6F"/>
<path d="M4.85001 10.2542V15.9906H3.1V10.2542H1V22.0002H7.12499V10.2542H4.85001Z" fill="#6F6F6F"/>
<path d="M19.8417 10.2542V15.9906H18.0917V10.2542H15.875V22.0002H22V10.2542H19.8417Z" fill="#6F6F6F"/>
<path d="M12.375 10.2542V15.9906H10.625V10.2542H8.875V22.0002H14.125V10.2542H12.375Z" fill="#6F6F6F"/>
</svg>
